<svg width="1200" height="630" viewBox="0 0 1200 630" fill="none" xmlns="http://www.w3.org/2000/svg">
  <rect width="1200" height="630" fill="#0D0D0D"/>
  <rect x="72" y="72" width="1056" height="486" rx="28" fill="#141414" stroke="#2A2A2A"/>
  <path d="M72 178H1128" stroke="#2A2A2A"/>
  <circle cx="126" cy="125" r="13" fill="#6C63FF"/>
  <circle cx="166" cy="125" r="13" fill="#B9FF66"/>
  <circle cx="206" cy="125" r="13" fill="#F0F0F0" fill-opacity=".22"/>
  <rect x="134" y="246" width="330" height="194" rx="18" fill="#1A1A1A" stroke="#2A2A2A"/>
  <rect x="504" y="246" width="562" height="44" rx="12" fill="#1A1A1A" stroke="#2A2A2A"/>
  <rect x="504" y="318" width="260" height="122" rx="18" fill="#1A1A1A" stroke="#2A2A2A"/>
  <rect x="806" y="318" width="260" height="122" rx="18" fill="#1A1A1A" stroke="#2A2A2A"/>
  <rect x="180" y="290" width="60" height="106" rx="8" fill="#6C63FF"/>
  <rect x="260" y="320" width="60" height="76" rx="8" fill="#B9FF66"/>
  <rect x="340" y="270" width="60" height="126" rx="8" fill="#F0F0F0" fill-opacity=".2"/>
  <text x="504" y="226" fill="#B9FF66" font-family="Inter, Arial, sans-serif" font-size="24" font-weight="700" letter-spacing="5">PLAN · TRACK · SHIP</text>
  <text x="504" y="374" fill="#F0F0F0" font-family="Inter, Arial, sans-serif" font-size="74" font-weight="800">Planora</text>
  <text x="506" y="420" fill="#B0B0B0" font-family="Inter, Arial, sans-serif" font-size="26">Agile project management &amp; sprint delivery platform</text>
</svg>
